<svg xmlns="http://www.w3.org/2000/svg" viewBox="0 0 64 64" role="img" aria-label="Geografiträning">
  <defs>
    <radialGradient id="bg" cx="32" cy="22" r="34" gradientUnits="userSpaceOnUse">
      <stop offset="0" stop-color="#1a2340"/>
      <stop offset="0.58" stop-color="#10192d"/>
      <stop offset="1" stop-color="#09131d"/>
    </radialGradient>
    <radialGradient id="globe" cx="26" cy="20" r="28" gradientUnits="userSpaceOnUse">
      <stop offset="0" stop-color="#ffffff"/>
      <stop offset="0.2" stop-color="#cfd6ff"/>
      <stop offset="0.5" stop-color="#8d5cff"/>
      <stop offset="0.8" stop-color="#79c5ff"/>
      <stop offset="1" stop-color="#4ed9c2"/>
    </radialGradient>
    <filter id="glow" x="-60%" y="-60%" width="220%" height="220%">
      <feGaussianBlur stdDeviation="3.2" result="blur"/>
      <feMerge>
        <feMergeNode in="blur"/>
        <feMergeNode in="SourceGraphic"/>
      </feMerge>
    </filter>
  </defs>

  <rect width="64" height="64" rx="18" fill="url(#bg)"/>

  <circle cx="32" cy="32" r="17.5" fill="none" stroke="#ff77c8" stroke-opacity="0.28" stroke-width="3" filter="url(#glow)"/>
  <circle cx="32" cy="32" r="15.5" fill="url(#globe)"/>

  <path d="M25 24c2.5-2.7 5.7-4 9.7-3.7 1.5.1 3.1.5 4.6 1.1-1.4 1.2-2 2.4-1.8 3.7.3 2.5 3 2.7 3.2 5 .2 1.9-1.4 2.9-2.9 3.5-1.3.5-2 .9-2.4 2.1-.4 1.1-1.3 1.9-2.5 2.2-1.4.4-2.8 0-3.8-1.1-.8-.8-1.8-1.3-2.9-1.3-1.7 0-3.2-1.3-3.4-3.1-.2-1.4.3-2.5 1.2-3.4.7-.7.9-1.3.6-2.3-.5-1.8-.1-3.2 0.4-4.7Z" fill="#0b1930" fill-opacity="0.38"/>
  <path d="M20.5 35.3c1.4 1.1 2.9 1.6 4.3 1.6 1.1 0 1.8.3 2.8 1.2 1.4 1.3 3.1 1.8 5 1.6-1.3 1-2.8 1.7-4.5 2-3.7.8-7.4-.3-10.3-2.8.8-.8 1.7-1.5 2.7-2Z" fill="#0b1930" fill-opacity="0.34"/>

  <path d="M32 16.5v31" stroke="#ffffff" stroke-opacity="0.35" stroke-width="1.8"/>
  <path d="M16.5 32h31" stroke="#ffffff" stroke-opacity="0.35" stroke-width="1.8"/>
  <ellipse cx="32" cy="32" rx="8.2" ry="15.5" fill="none" stroke="#ffffff" stroke-opacity="0.3" stroke-width="1.6"/>
  <ellipse cx="32" cy="32" rx="15.5" ry="8.2" fill="none" stroke="#ffffff" stroke-opacity="0.3" stroke-width="1.6"/>
  <ellipse cx="32" cy="32" rx="15.5" ry="4.4" fill="none" stroke="#ffffff" stroke-opacity="0.22" stroke-width="1.2"/>

  <circle cx="45" cy="18" r="2.2" fill="#f3c46b"/>
  <path d="M45 13.8l.8 2.1 2.2.8-2.2.8-.8 2.1-.8-2.1-2.2-.8 2.2-.8.8-2.1Z" fill="#fff" fill-opacity="0.95"/>
</svg>
